{"title":"Prisoners(2013) MP4 PapaFatHead","uid":9673542,"size":983781390,"categoryP":"video","categoryS":"hd___movies","magnet":"?xt=urn:btih:a026350374fee122878d476f28ce871c35b7b169&amp;dn=Prisoners%282013%29+MP4+PapaFatHead&amp;tr=udp%3A%2F%2Ftracker.openbittorrent.com%3A80&amp;tr=udp%3A%2F%2Fopen.demonii.com%3A1337&amp;tr=udp%3A%2F%2Ftracker.coppersurfer.tk%3A6969&amp;tr=udp%3A%2F%2Fexodus.desync.com%3A6969","seeders":1,"leechers":0,"uploader":"PapaFatHead","files":1,"time":1393516056,"description":" &lt;a href=&quot;http://www.imdb.com/title/tt1392214/&quot; rel=&quot;nofollow&quot; target=&quot;_NEW&quot;&gt;http://www.imdb.com/title/tt1392214/&lt;/a&gt;\n\nGeneral\nComplete name                  : Prisoners (2013).mp4\nFormat                         : MPEG-4\nFormat profile                 : Base Media / Version 2\nCodec ID                       : mp42\nFile size                      : 938 MiB\nDuration                       : 2h 33mn\nOverall bit rate mode          : Variable\nOverall bit rate               : 856 Kbps\n\n\nVideo\nID                             : 1\nFormat                         : AVC\nFormat/Info                    : Advanced Video Codec\nFormat profile                 : &lt;a class=&quot;__cf_email__&quot; href=&quot;/cdn-cgi/l/email-protection&quot; data-cfemail=&quot;85c7e4f6e0e9ecebe0c5c9b6abb5&quot;&gt;[email&amp;#160;protected]&lt;/a&gt;&lt;script cf-hash='f9e31' type=&quot;text/javascript&quot;&gt;\n/* &lt;![CDATA[ */!function(){try{var t=&quot;currentScript&quot;in document?document.currentScript:function(){for(var t=document.getElementsByTagName(&quot;script&quot;),e=t.length;e--;)if(t[e].getAttribute(&quot;cf-hash&quot;))return t[e]}();if(t&amp;&amp;t.previousSibling){var e,r,n,i,c=t.previousSibling,a=c.getAttribute(&quot;data-cfemail&quot;);if(a){for(e=&quot;&quot;,r=parseInt(a.substr(0,2),16),n=2;a.length-n;n+=2)i=parseInt(a.substr(n,2),16)^r,e+=String.fromCharCode(i);e=document.createTextNode(e),c.parentNode.replaceChild(e,c)}}}catch(u){}}();/* ]]&gt; */&lt;/script&gt;\nFormat settings, CABAC         : No\nFormat settings, ReFrames      : 2 frames\nCodec ID                       : avc1\nCodec ID/Info                  : Advanced Video Coding\nDuration                       : 2h 33mn\nBit rate                       : 693 Kbps\nWidth                          : 852 pixels\nHeight                         : 480 pixels\nDisplay aspect ratio           : 16:9\nOriginal display aspect ratio  : 16:9\nFrame rate mode                : Variable\nFrame rate                     : 23.976 fps\nMinimum frame rate             : 23.810 fps\nMaximum frame rate             : 30.000 fps\nColor space                    : YUV\nChroma subsampling             : 4:2:0\nBit depth                      : 8 bits\nScan type                      : Progressive\nBits/(Pixel*Frame)             : 0.071\nStream size                    : 759 MiB (81%)\nWriting library                : x264 core 130 r2273 b3065e6\n\n\nAudio\nID                             : 2\nFormat                         : AAC\nFormat/Info                    : Advanced Audio Codec\nFormat profile                 : LC\nCodec ID                       : 40\nDuration                       : 2h 33mn\nBit rate mode                  : Variable\nBit rate                       : 160 Kbps\nMaximum bit rate               : 252 Kbps\nChannel(s)                     : 2 channels\nChannel positions              : Front: L R\nSampling rate                  : 48.0 KHz\nCompression mode               : Lossy\nStream size                    : 175 MiB (19%)\nLanguage                       : English\n\n[URL=http://www.imgclik.com/viewer.php?file=45326120342850745999.jpg][IMG]http://www.imgclik.com/images/45326120342850745999_thumb.jpg[/IMG][/URL]\n\n[URL=http://www.imgclik.com/viewer.php?file=77039351800676454960.jpg][IMG]http://www.imgclik.com/images/77039351800676454960_thumb.jpg[/IMG][/URL]\n\n[URL=http://www.imgclik.com/viewer.php?file=15005429882901902404.jpg][IMG]http://www.imgclik.com/images/15005429882901902404_thumb.jpg[/IMG][/URL]\n\n[URL=http://www.imgclik.com/viewer.php?file=36509969275433875893.jpg][IMG]http://www.imgclik.com/images/36509969275433875893_thumb.jpg[/IMG][/URL]\n\n[URL=http://www.imgclik.com/viewer.php?file=35512064564931525983.jpg][IMG]http://www.imgclik.com/images/35512064564931525983_thumb.jpg[/IMG][/URL]","torrent":{"xt":"urn:btih:a026350374fee122878d476f28ce871c35b7b169","amp;dn":"Prisoners%282013%29+MP4+PapaFatHead","amp;tr":["udp%3A%2F%2Ftracker.openbittorrent.com%3A80","udp%3A%2F%2Fopen.demonii.com%3A1337","udp%3A%2F%2Ftracker.coppersurfer.tk%3A6969","udp%3A%2F%2Fexodus.desync.com%3A6969"],"infoHash":"a026350374fee122878d476f28ce871c35b7b169","infoHashBuffer":{"type":"Buffer","data":[160,38,53,3,116,254,225,34,135,141,71,111,40,206,135,28,53,183,177,105]},"announce":[],"urlList":[]}}